# xmcd
#
# Track frame offsets:
#	150
#	39699
#	68540
#	92728
#	120720
#	146575
#	171231
#	197689
#	222090
#	233306
#
# Disc length: 3586 seconds
#
# Revision: 2
# Processed by: cddbd v1.4PL0 Copyright (c) Steve Scherf et al.
# Submitted via: dBpowerAMP V4.0
#
DISCID=840e000a
DTITLE=Various Artist - Latin House Sessions CD3 (Mixed)
DYEAR=1900
DGENRE=misc
TTITLE0=Sueno Latino - Sueno Latino (Paradise Excursion Mix)
TTITLE1=Isolee - Beau Mot Plage (Freeform Reforms pt. 1&2)
TTITLE2=Masters at Work - To be in Love (MJ Cole Vox)
TTITLE3=Negrocan - Aquila Esquina (Grant Nelson's Club Mix)
TTITLE4=Greens Keepers - Andy Woman
TTITLE5=Afro Medusa - Pasilda (Knee Deep Club Mix)
TTITLE6=Warrior - Warrior (Robbie Rivera's Soul Bandit Mix)
TTITLE7=DJ Phenix - Do You Love Me (Olav Basoski Mix)
TTITLE8=Sao Paolo - Be Yourself Be Free (Brasilia Mix)
TTITLE9=Vela Cruz - Latin Diablo
EXTD=Ice
EXTT0=
EXTT1=
EXTT2=
EXTT3=
EXTT4=
EXTT5=
EXTT6=
EXTT7=
EXTT8=
EXTT9=
PLAYORDER=
